<svg width="24" height="24" viewBox="0 0 24 24" fill="none" xmlns="http://www.w3.org/2000/svg">
  <path fill-rule="evenodd" clip-rule="evenodd" d="M4 3H20V5.07692H18.5C18.2239 5.07692 18 5.30078 18 5.57692V6.65385C18 6.92999 18.2239 7.15385 18.5 7.15385H20V16.8462H18.5C18.2239 16.8462 18 17.07 18 17.3462V18.4231C18 18.6992 18.2239 18.9231 18.5 18.9231H20V21H4V18.9231H5.5C5.77614 18.9231 6 18.6992 6 18.4231V17.3462C6 17.07 5.77614 16.8462 5.5 16.8462H4V7.15385H5.5C5.77614 7.15385 6 6.92999 6 6.65385V5.57692C6 5.30078 5.77614 5.07692 5.5 5.07692L4 5.07692V3ZM16 6.65385C16 6.92999 15.7761 7.15385 15.5 7.15385H13.5C13.2239 7.15385 13 6.92999 13 6.65385V5.57692C13 5.30078 13.2239 5.07692 13.5 5.07692L15.5 5.07692C15.7761 5.07692 16 5.30078 16 5.57692V6.65385ZM11 6.65385C11 6.92999 10.7761 7.15385 10.5 7.15385H8.5C8.22386 7.15385 8 6.92999 8 6.65385V5.57692C8 5.30078 8.22386 5.07692 8.5 5.07692L10.5 5.07692C10.7761 5.07692 11 5.30078 11 5.57692V6.65385ZM8.5 16.8462C8.22386 16.8462 8 17.07 8 17.3462V18.4231C8 18.6992 8.22386 18.9231 8.5 18.9231H10.5C10.7761 18.9231 11 18.6992 11 18.4231V17.3462C11 17.07 10.7761 16.8462 10.5 16.8462H8.5ZM13.5 16.8462C13.2239 16.8462 13 17.07 13 17.3462V18.4231C13 18.6992 13.2239 18.9231 13.5 18.9231H15.5C15.7761 18.9231 16 18.6992 16 18.4231V17.3462C16 17.07 15.7761 16.8462 15.5 16.8462H13.5ZM7.16672 9.23077C6.89058 9.23077 6.66672 9.45463 6.66672 9.73077V14.2692C6.66672 14.5454 6.89058 14.7692 7.16672 14.7692H16.8334C17.1095 14.7692 17.3334 14.5454 17.3334 14.2692V9.73077C17.3334 9.45463 17.1095 9.23077 16.8334 9.23077H7.16672Z" fill="currentColor"/>
</svg>
