<svg xmlns="http://www.w3.org/2000/svg" xmlns:xlink="http://www.w3.org/1999/xlink" width="20" height="20" fill="none" viewBox="0 0 20 20"><mask id="a" width="20" height="20" x="0" y="0" maskUnits="userSpaceOnUse"><circle cx="10" cy="10" r="10" fill="#fff"/></mask><g><circle cx="10" cy="10" r="10" fill="currentColor" fill-opacity=".4"/><g mask="url(#a)"><path fill="currentColor" d="m3.60487 17.411c.08933-.8933.57403-1.6996 1.32101-2.1976l2.18219-1.4548c.56314-.3754.60787-1.2037.1527-1.7046-.69943-.7696-1.5148-1.9118-1.5148-3.054 0-2 .25-6 4.25-6 4.00003 0 4.25003 4 4.25003 6 0 1.1422-.8154 2.2844-1.5148 3.054-.4552.5009-.4105 1.3292.1527 1.7046l2.1822 1.4548c.7469.498 1.2316 1.3043 1.321 2.1976l.2489 2.4895c.0589.5887-.4034 1.0995-.995 1.0995h-11.29004c-.59162 0-1.05391-.5108-.99504-1.0995z"/></g></g></svg>